<?xml version="1.0" encoding="utf-8"?>
<!-- Generator: Adobe Illustrator 28.0.0, SVG Export Plug-In . SVG Version: 6.00 Build 0)  -->
<svg version="1.1" id="Camada_1" xmlns="http://www.w3.org/2000/svg" xmlns:xlink="http://www.w3.org/1999/xlink" x="0px" y="0px"
	 width="308px" height="193.9px" viewBox="0 0 308 193.9" style="enable-background:new 0 0 308 193.9;" xml:space="preserve">
<style type="text/css">
	.st0{fill:#926F35;}
	.st1{clip-path:url(#SVGID_00000021086100141048656840000003347591164758255527_);}
</style>
<g>
	<g>
		<g transform="translate(103.707004, 175.712244)">
			<g>
				<path class="st0" d="M-31.1-75.7c-9.3,0-16.3-2.8-21.1-8.3c-4.8-5.6-7.2-13.3-7.2-23.3c0-9.9,2.4-17.6,7.3-23.2
					c4.9-5.6,11.8-8.4,20.8-8.4c7.7,0,13.8,2,18.2,6.1l-0.8,10.7h-2.1c-0.7-2-1.2-5.3-1.7-9.8c-1.4-1.1-3.1-2-5.1-2.7
					c-2-0.7-4.1-1-6.4-1c-7.3,0-12.8,2.6-16.5,7.7c-3.7,5.2-5.5,12-5.5,20.6c0,8.7,1.7,15.7,5.1,20.8c3.4,5.1,8.8,7.6,16.2,7.6
					c2.2,0,4.8-0.4,7.6-1.2c2.8-0.8,5.4-2,7.8-3.5l1.1,2.4c-2,1.8-4.6,3.2-7.8,4.2C-24.1-76.2-27.5-75.7-31.1-75.7z"/>
			</g>
		</g>
	</g>
	<g>
		<g transform="translate(144.510224, 175.712244)">
			<g>
				<path class="st0" d="M0.3-79.2c3,0.5,5.1,1.1,6.4,1.6v1.1H-6.1l-14.4-26.4H-31v23.7c2.3,0.4,4.7,0.9,7.1,1.7v1h-22.4v-1.1
					c1.1-0.3,2.3-0.7,3.6-1c1.3-0.3,2.5-0.5,3.5-0.6v-56.2c-2.5-0.3-4.8-0.9-6.9-1.7v-1h28.9c6.7,0,11.5,1.5,14.5,4.6
					c3,3,4.4,7.3,4.4,12.8c0,4.9-1.3,8.9-3.8,12c-2.5,3-6.3,4.9-11.2,5.5L0.3-79.2z M-31-106.1h11.5c4.5,0,7.8-1.3,9.9-3.9
					c2.1-2.6,3.2-6.2,3.2-10.8s-1.1-8.1-3.2-10.5c-2.1-2.4-5.4-3.6-9.9-3.6H-31V-106.1z"/>
			</g>
		</g>
	</g>
	<g>
		<g transform="translate(188.543425, 175.712244)">
			<g>
				<path class="st0" d="M-31.4-77.6c2.5-0.8,4.9-1.3,7.1-1.6v-56.2c-2.5-0.3-4.8-0.9-7.1-1.7v-1H-9v1.1c-2,0.6-4.4,1.2-7.2,1.6
					v56.2c2.4,0.4,4.8,0.9,7.2,1.7v1h-22.4V-77.6z"/>
			</g>
		</g>
	</g>
	<g>
		<g transform="translate(211.02145, 175.712244)">
			<g>
				<path class="st0" d="M-4.1-75.7c-4.6,0-8.7-0.7-12.3-2.2c-3.6-1.5-6.4-3.4-8.3-5.9l0.9-12h2c0.5,1.5,1.1,5.1,1.6,10.8
					c1.5,1.8,3.5,3.3,5.9,4.4c2.4,1.1,5.1,1.6,8.2,1.6c4.2,0,7.7-1.1,10.6-3.3c2.9-2.2,4.4-5.3,4.4-9.3c0-2.6-0.7-4.9-2.1-6.7
					c-1.4-1.8-3.1-3.4-5.2-4.5c-2.1-1.2-4.8-2.5-8.3-4c-3.8-1.6-6.7-3.1-9-4.4c-2.2-1.3-4.1-3-5.7-5.1c-1.6-2.1-2.3-4.8-2.3-8
					c0-4.8,1.8-8.4,5.5-10.9c3.7-2.5,8.7-3.7,14.9-3.7c8,0,14.1,2.1,18.1,6.3l-0.9,10.3h-2c-0.8-2.2-1.3-5.3-1.7-9.5
					c-1.3-1.2-3-2.2-5-2.8c-2-0.7-4.1-1-6.5-1c-4.7,0-8.2,0.9-10.6,2.6c-2.4,1.8-3.6,4.3-3.6,7.6c0,1.9,0.6,3.6,1.8,5.1
					c1.2,1.4,2.7,2.7,4.5,3.7c1.8,1,4.2,2.2,7.4,3.6c4,1.8,7.3,3.4,9.8,4.9c2.5,1.5,4.6,3.5,6.4,6.1c1.8,2.5,2.7,5.7,2.7,9.4
					c0,3.5-0.9,6.5-2.8,9.1c-1.8,2.6-4.4,4.5-7.6,5.9C3.6-76.4-0.1-75.7-4.1-75.7z"/>
			</g>
		</g>
	</g>
	<g>
		<defs>
			<rect id="SVGID_1_" x="207.5" y="107" width="58.5" height="21"/>
		</defs>
		<clipPath id="SVGID_00000145754047415994358470000017438005552776701838_">
			<use xlink:href="#SVGID_1_"  style="overflow:visible;"/>
		</clipPath>
		<g style="clip-path:url(#SVGID_00000145754047415994358470000017438005552776701838_);">
			<path class="st0" d="M244.4,124.2c-2.4-1.6-4.5-3.8-6.3-6c-1.8-2.2-3.6-4.6-5.7-6.6c-1.8-1.7-3.8-3.1-6.1-3.9
				c-1.8-0.6-3.8-0.8-5.6-0.6c-3.8,0.3-7.8,1.8-10.4,4.8c-1.3,1.5-2.2,3.3-2.5,5.2c-0.3,2.1,0,4.3,1,6.2c1,1.9,2.6,3.3,4.5,4.1
				c2.2,0.9,4.8,0.7,7,0.2c2.5-0.6,5-1.6,7.3-2.8c2.3-1.2,4.5-2.6,6.6-4.1c2.1-1.4,4.1-2.9,6.1-4.4c2.1-1.6,4.2-3.2,6.5-4.5
				c4.3-2.5,10-4.1,14.5-1.2c1.8,1.2,2.9,3.3,3.2,5.4c0.2,2.2-0.3,4.4-1.6,6.2c-1.2,1.8-3.2,3.3-5.4,3.6c-1.1,0.1-2.3-0.1-3.3-0.7
				c-0.5-0.3-0.9-0.7-1.3-1.1c-0.3-0.4-0.8-1.1-0.7-1.7c0-0.2,0.1-0.4,0.3-0.5c0.1-0.1,0.3-0.1,0.4-0.1c0.1,0.1,0.2,0.3,0.3,0.5
				c0.1,0.3,0.2,0.6,0.2,1c0,0.5,0.7,0.8,1,0.4c0.5-0.5,0.6-1.1,0.7-1.8c0.1-0.2,0.1-0.5,0.3-0.7c0.1-0.2,0.3-0.4,0.5-0.3
				c-0.1,0,0.1,0.1,0,0c0,0.1,0.1,0.1,0.1,0.2c0,0.3,0,0.6-0.1,0.8c-0.1,0.6-0.4,1.1-0.6,1.6c-0.6,1-1.5,1.8-2.5,2.3
				c-1.2,0.6-2.7,0.7-4,0.4C247.2,125.8,245.8,125.1,244.4,124.2c-0.6-0.4-1.2,0.6-0.6,1c2.7,1.8,6.3,3,9.5,1.5
				c1.3-0.6,2.4-1.7,3.1-2.9c0.6-1,1.5-3.2,0.1-4.1c-0.8-0.5-1.7,0.1-2.2,0.8c-0.2,0.4-0.3,0.8-0.4,1.2c-0.1,0.3-0.1,0.7-0.4,1
				c0.3,0.1,0.7,0.3,1,0.4c0-0.7-0.2-1.5-0.7-2.1c-0.5-0.6-1.2-0.7-1.8-0.4c-0.6,0.3-1,1-1,1.6c0,0.7,0.3,1.4,0.7,2
				c1.5,2.2,4.1,3.1,6.6,2.5c2.4-0.6,4.4-2.4,5.7-4.4c1.3-2,1.8-4.4,1.5-6.7c-0.3-2.4-1.5-4.6-3.4-6.1c-2.1-1.6-4.9-2.1-7.5-1.9
				c-5.5,0.4-10.1,3.7-14.3,6.9c-2.1,1.6-4.1,3.1-6.2,4.5c-2.2,1.5-4.4,3-6.7,4.2c-2.3,1.2-4.7,2.3-7.3,2.9
				c-2.2,0.5-4.7,0.7-6.7-0.3c-3.8-1.7-5.4-6.3-4.1-10.2c1.2-3.6,4.5-6,8-7.1c3.7-1.1,7.8-0.9,11.1,1c2.4,1.4,4.4,3.5,6.1,5.7
				c1.9,2.3,3.7,4.8,5.9,6.9c1,1,2.2,1.9,3.4,2.8c0.3,0.2,0.7,0.1,0.8-0.2C244.8,124.8,244.7,124.4,244.4,124.2z"/>
		</g>
	</g>
	<g>
		<g transform="translate(111.677393, 192.855119)">
			<g>
				<path class="st0" d="M-16.7-83.5c-0.5-0.2-1.1,0-1.4,0.5c-6.2,13.1-12.2,22.8-17.8,28.7c-4.8,5-9.1,7.1-12.5,6
					c-3.1-1-5.5-4.6-6.7-10.3c-1.4-6.1-1.3-13.9,0.1-22.6c2-12.4,7.8-29.9,14.6-38.1c2-2.4,3.8-3.5,4.8-3c2.6,1.2,3.6,11.6-2,36.8
					c-0.2,0.5,0.2,1.1,0.8,1.2c0.6,0.1,1.1-0.3,1.2-0.8c3.6-16.2,6.7-36.2,0.9-39.1c-1.4-0.7-3.8-0.7-7.3,3.5
					c-4.3,5.2-7.7,13-9.7,18.6c-2.4,6.7-4.4,14.2-5.4,20.5c-3,18.6,0.2,32.7,8,35.2c0.8,0.2,1.6,0.3,2.4,0.3
					c8.6,0,19.5-12.9,30.3-36.2C-15.9-82.6-16.1-83.2-16.7-83.5z"/>
			</g>
		</g>
	</g>
	<g>
		<g transform="translate(143.115341, 192.855119)">
			<g>
				<path class="st0" d="M-27.6-82.9c-0.5-0.2-1.1,0-1.4,0.5c-4.1,8.4-7.2,11.1-8.7,10.8c-0.6-0.1-2.6-1.2-3-10.8
					c0-0.4-0.3-0.8-0.7-0.9c-0.4-0.1-0.9,0-1.1,0.4c-0.3,0.4-0.7,0.8-1,1.3c-1.4,1.8-3.1,4.3-5.3,6.7c-0.3,0.4-0.6,0.6-0.8,0.7
					c-0.4-1.9,1.6-9.2,4.8-11.5c0.9-0.7,2.2-1.1,3.9,0.8c0.4,0.4,1,0.5,1.5,0.1c0.4-0.3,0.5-1,0.2-1.5c-2.1-2.4-4-2.3-5.3-1.9
					c-4.2,1.5-7,9.5-7.1,13.2c-0.1,1.5,0.4,2.5,1.2,2.8c1.4,0.5,2.7-0.9,3.1-1.4c1.8-2,3.5-4.2,4.7-5.9c0.6,6.2,2.1,9.3,4.5,9.8
					c0.2,0,0.4,0.1,0.7,0.1c3.7,0,7.7-6.5,10.3-12C-26.8-82-27.1-82.6-27.6-82.9z"/>
			</g>
		</g>
	</g>
	<g>
		<g transform="translate(158.264193, 192.855119)">
			<g>
				<path class="st0" d="M-14.6-82.9c-0.4-0.4-1.1-0.3-1.5,0.1c-4.3,5.1-7.3,6.4-8.6,5.9c-1.1-0.4-1.8-2.6-1.7-6
					c0-0.6,0.1-2.1-1.1-2.3c-1.4-0.3-2.3,1.2-5.2,7.3c-0.5,1-0.9,2-1.2,2.5c-0.3,0.6-0.5,0.9-0.7,1.1c-0.3-0.5-0.7-2-0.6-4.1
					c0-1.1,0-2,0.1-2.8c0.1-2.4,0.1-3.3-0.9-3.6c-0.9-0.3-1.5,0.5-1.6,0.8c-2.4,3.3-4.5,6.6-6.7,10.6c0.9-3.7,2.4-9.1,4.5-13.6
					c0.2-0.5,0-1.2-0.5-1.4c-0.5-0.2-1.1,0-1.4,0.5c-1.5,3.5-3,8-4.2,12.5c-1.8,7.2-1.1,7.5-0.4,7.8c0.2,0.1,0.3,0.1,0.5,0.1
					c0.5,0,1-0.4,1.5-1.2c2.6-5,4.8-8.7,7.3-12.3c0,0.8-0.1,1.6-0.1,2.6c0,1.7,0.2,5.7,2.2,6.2c1.6,0.4,2.7-1.6,3-2.3
					c0.3-0.6,0.8-1.5,1.2-2.6c0.6-1.2,1.6-3.3,2.4-4.7c0.1,3.8,1.1,6.1,3.1,6.8c2.7,1,6.3-1.2,10.9-6.5
					C-14.1-81.9-14.2-82.6-14.6-82.9z"/>
			</g>
		</g>
	</g>
	<g>
		<g transform="translate(179.480737, 192.855119)">
			<g>
				<path class="st0" d="M-26.6-91c-1.4-0.4-5.1-0.2-9,11.1c2.2-12.3,2.6-14.4,2.5-14.8c0-0.5-0.5-1-1.1-1c-0.5,0.1-1,0.5-1,1
					c-0.1,0.8-1.4,8.1-2.9,16.6c-0.3,1.8-0.7,3.7-1,5.7c-0.8,0.3-1.5,0.5-2.3,0.8c-0.5,0.2-0.9,0.7-0.7,1.3c0.2,0.5,0.7,0.9,1.2,0.7
					c0.4-0.1,0.9-0.3,1.3-0.4c-2.3,13.2-5,28.4-6.2,36.7c-0.1,0.5,0.3,1.1,0.9,1.1c0.1,0,0.1,0.1,0.2,0.1c0.5,0,1-0.4,1-0.9
					c1.4-8,5.1-27.1,7.9-38.7c1.7-0.9,3.3-1.8,4.7-3c2.3-1.9,5.3-4.9,6.3-8.9C-23.6-87.2-24.4-90.3-26.6-91z M-26.6-84.1
					c-1,3.9-4.5,7.3-8.4,9.7c0.5-1.8,0.9-3.4,1.3-4.6c2.8-8.3,5.4-10,6.4-10c0.1,0,0.1,0,0.2,0C-26.4-88.8-25.8-86.9-26.6-84.1z"/>
			</g>
		</g>
	</g>
	<g>
		<g transform="translate(191.779004, 192.855119)">
			<g>
				<path class="st0" d="M-14.4-82.6c-0.5-0.4-1.1-0.3-1.5,0.2c-2.3,2.9-6,5.4-8.9,4.8c0.1-0.4,0.1-0.8,0.1-1.1
					c0.4-6.1-1.5-7.4-2.7-7.6c-1.3-0.3-2.7,0.7-3.3,2.3c-0.3-0.1-0.6-0.1-0.9,0.1c-2.2,1.4-4,4.8-3,8.6c0.7,2.2,2.2,3.6,4.2,3.6
					c1.9,0,3.9-1.4,4.9-3.9c3.8,0.8,8.4-2,11.1-5.5C-13.9-81.6-14-82.3-14.4-82.6z M-30.3-73.8C-30.3-73.8-30.3-73.8-30.3-73.8
					c-1.4-0.1-2-1.4-2.2-2.1c-0.5-1.8-0.1-4.4,1.4-5.8c0.1,1.8,1.1,3.9,3.7,5.3C-28-74.7-29.3-73.8-30.3-73.8z M-26.7-78.9
					c-0.1,0.1-0.1,0.2-0.1,0.3c-2.1-1.4-2.4-3.1-2-4.5c0.3-0.9,0.8-1.3,1.1-1.3C-27.4-84.3-26.5-83.2-26.7-78.9z"/>
			</g>
		</g>
	</g>
	<g>
		<g transform="translate(204.810276, 192.855119)">
			<g>
				<path class="st0" d="M-5.6-83.3C-6-83.7-6.7-83.6-7-83.2c-4.3,4.9-11,12.8-12.1,14.2c-0.3,0.4-0.7,0.8-1,1.2
					c-0.4-1.1-1-2.1-1.7-3.2c-2.6-4-4.9-7.8-4.8-10.5c0.1-2.1,1.2-4,3-5c1.5-0.9,3.1-1,4.3-0.4c0.5,0.2,1.1,0,1.4-0.5
					c0.3-0.5,0.1-1.1-0.5-1.4c-1.8-0.9-4.2-0.7-6.3,0.5c-2.4,1.5-3.8,3.9-4,6.7c-0.2,3.3,2.2,7.3,5.2,11.7c0.9,1.4,1.5,2.8,1.9,4.1
					c-4.2,5.8-8.8,13.1-6.5,15.4c0.4,0.4,0.9,0.5,1.4,0.5c0.9,0,1.8-0.4,2.9-1.2c2.9-2.4,6-8,4.5-14.3c0.6-0.8,1.2-1.6,1.8-2.4
					c1.1-1.4,7.8-9.2,12.1-14.2C-5.1-82.2-5.1-82.9-5.6-83.3z M-23.2-54.9c-1.5,2.2-2.9,3-3.4,3.1c-0.2-0.8,0.5-3.9,5.5-11.1
					C-20.9-58.9-22.5-56-23.2-54.9z"/>
			</g>
		</g>
	</g>
	<g>
		<g transform="translate(218.402334, 209.782251)">
			<g>
				<path class="st0" d="M-19.1-76.8v11.6h-1.6v-11.6h-4.1v-1.4h9.9v1.4H-19.1z"/>
			</g>
		</g>
	</g>
	<g>
		<g transform="translate(226.405862, 209.782251)">
			<g>
				<path class="st0" d="M-20.8-65.2v-13h8v1.4h-6.4v4.4h6v1.4h-6v4.5h6.4v1.4H-20.8z"/>
			</g>
		</g>
	</g>
	<g>
		<g transform="translate(234.563313, 209.782251)">
			<g>
				<path class="st0" d="M-16.5-65.2h-1.6v-13h5.2c1.2,0,2,0.3,2.7,1c0.6,0.6,1,1.5,1,2.7c0,1-0.2,1.8-0.7,2.4
					c-0.4,0.6-1.1,1-1.9,1.2l3,5.8h-1.8l-2.8-5.6h-3V-65.2z M-12.9-72.1c0.6,0,1.1-0.2,1.4-0.5c0.3-0.3,0.5-0.8,0.5-1.4v-1
					c0-0.6-0.2-1.1-0.5-1.4c-0.3-0.3-0.8-0.5-1.4-0.5h-3.6v4.7H-12.9z"/>
			</g>
		</g>
	</g>
	<g>
		<g transform="translate(243.518314, 209.782251)">
			<g>
				<path class="st0" d="M-6.9-65.2l-1.3-3.9h-5.3l-1.3,3.9h-1.6l4.5-13h2l4.6,13H-6.9z M-10.8-76.8h-0.1l-2.2,6.4h4.5L-10.8-76.8z"
					/>
			</g>
		</g>
	</g>
	<g>
		<g transform="translate(252.487312, 209.782251)">
			<g>
				<path class="st0" d="M-12.1-65.2v-13h5.2c1.2,0,2.1,0.3,2.7,1c0.6,0.7,0.9,1.6,0.9,2.7c0,1.2-0.3,2.1-0.9,2.7
					c-0.6,0.7-1.5,1-2.7,1h-3.6v5.6H-12.1z M-10.5-72.1h3.6c0.6,0,1.1-0.2,1.4-0.5C-5.1-72.9-5-73.4-5-74v-1c0-0.6-0.2-1.1-0.5-1.4
					c-0.3-0.3-0.8-0.5-1.4-0.5h-3.6V-72.1z"/>
			</g>
		</g>
	</g>
	<g>
		<g transform="translate(260.966582, 209.782251)">
			<g>
				<path class="st0" d="M-9.9-65.2v-1.3h1.8v-10.4h-1.8v-1.3h5.2v1.3h-1.8v10.4h1.8v1.3H-9.9z"/>
			</g>
		</g>
	</g>
	<g>
		<g transform="translate(266.563464, 209.782251)">
			<g>
				<path class="st0" d="M0.8-65.2l-1.3-3.9h-5.3l-1.3,3.9h-1.6l4.5-13h2l4.6,13H0.8z M-3.1-76.8h-0.1l-2.2,6.4H-1L-3.1-76.8z"/>
			</g>
		</g>
	</g>
	<g>
		<g transform="translate(275.532461, 209.782251)">
			<g>
				<path class="st0" d="M-0.8-65c-1.1,0-2-0.2-2.7-0.6c-0.8-0.4-1.4-1-1.9-1.7l1.1-1c0.5,0.6,1,1.1,1.5,1.4c0.6,0.3,1.2,0.5,2,0.5
					c0.9,0,1.6-0.2,2.1-0.7c0.5-0.4,0.8-1,0.8-1.8c0-0.6-0.2-1.1-0.6-1.4c-0.4-0.3-1-0.6-1.9-0.8l-1.1-0.2c-1.2-0.3-2.1-0.7-2.8-1.2
					C-4.7-73.1-5-73.9-5-74.9c0-0.6,0.1-1.1,0.3-1.5c0.2-0.5,0.5-0.8,0.9-1.1c0.4-0.3,0.8-0.5,1.4-0.7c0.5-0.2,1.1-0.2,1.7-0.2
					c1,0,1.8,0.2,2.5,0.5c0.7,0.4,1.3,0.9,1.8,1.6l-1.2,0.9c-0.4-0.5-0.8-0.9-1.3-1.2c-0.5-0.3-1.1-0.4-1.9-0.4
					c-0.8,0-1.5,0.2-2,0.5c-0.5,0.3-0.7,0.9-0.7,1.6c0,0.6,0.2,1.1,0.6,1.4c0.4,0.3,1,0.6,1.8,0.8l1.1,0.2c1.3,0.3,2.2,0.7,2.8,1.3
					c0.6,0.6,0.9,1.4,0.9,2.3c0,0.6-0.1,1.1-0.3,1.6c-0.2,0.5-0.5,0.9-0.9,1.2c-0.4,0.3-0.8,0.6-1.4,0.8C0.6-65.1-0.1-65-0.8-65z"/>
			</g>
		</g>
	</g>
</g>
</svg>
